<?xml version="1.0" standalone="no"?>
<!DOCTYPE svg PUBLIC "-//W3C//DTD SVG 20010904//EN"
 "http://www.w3.org/TR/2001/REC-SVG-20010904/DTD/svg10.dtd">
<svg version="1.0" xmlns="http://www.w3.org/2000/svg"
 width="384.000000pt" height="384.000000pt" viewBox="0 0 384.000000 384.000000"
 preserveAspectRatio="xMidYMid meet">
<metadata>
Created by potrace 1.11, written by Peter Selinger 2001-2013
</metadata>
<g transform="translate(0.000000,384.000000) scale(0.100000,-0.100000)"
fill="#000000" stroke="none">
<path d="M560 3549 c-88 -7 -129 -19 -184 -55 -77 -50 -124 -113 -150 -204
-14 -48 -16 -191 -16 -1375 1 -1462 -4 -1356 67 -1462 42 -63 131 -126 204
-143 41 -10 342 -13 1359 -13 1182 0 1310 1 1361 16 115 34 209 124 243 233
21 65 30 283 12 290 -6 2 -393 5 -861 6 l-850 3 -59 29 c-98 48 -179 147 -202
246 -11 48 -12 1532 -1 1595 12 68 62 159 111 201 22 19 65 47 96 62 l55 27
860 5 860 5 0 105 c0 120 -11 177 -51 250 -49 91 -152 162 -255 176 -57 8
-2501 11 -2599 3z"/>
<path d="M1839 2638 c-4 -57 -3 -1422 1 -1428 3 -4 410 -7 905 -6 l900 1 0
720 0 720 -902 3 c-719 2 -903 0 -904 -10z m836 -468 c53 -26 100 -72 127
-123 32 -59 32 -184 1 -242 -85 -159 -287 -199 -419 -82 -68 60 -89 106 -89
202 0 107 29 160 128 235 53 39 181 45 252 10z"/>
</g>
</svg>
